<svg width="459" height="459" viewBox="0 0 459 459" fill="none" xmlns="http://www.w3.org/2000/svg">
<path d="M414.431 32.6542H45.0081C36.2784 32.6542 29.2017 39.731 29.2017 48.4606V417.884C29.2017 426.613 36.2784 433.69 45.0081 433.69H414.431C423.161 433.69 430.238 426.613 430.238 417.884V48.4606C430.238 39.731 423.161 32.6542 414.431 32.6542Z" fill="#B3B3B3" stroke="#333333" stroke-width="3.125" stroke-linejoin="round"/>
<path d="M30.2849 174.044H432.246" stroke="#333333" stroke-width="1.33333" stroke-linecap="round" stroke-linejoin="round"/>
<path d="M30.2849 298.567H432.246" stroke="#333333" stroke-width="1.33333" stroke-linecap="round" stroke-linejoin="round"/>
<path d="M166.571 438.974V37.0123" stroke="#333333" stroke-width="1.33333" stroke-linecap="round" stroke-linejoin="round"/>
<path d="M291.085 438.98V37.0183" stroke="#333333" stroke-width="1.33333" stroke-linecap="round" stroke-linejoin="round"/>
<path fill-rule="evenodd" clip-rule="evenodd" d="M144.539 361.944C144.598 356.213 143.52 350.526 141.367 345.214C139.214 339.901 136.03 335.069 131.998 330.995C127.965 326.921 123.166 323.687 117.876 321.479C112.586 319.272 106.91 318.136 101.178 318.136C95.4464 318.136 89.7713 319.272 84.4813 321.479C79.1913 323.687 74.3914 326.921 70.3592 330.995C66.327 335.069 63.1424 339.901 60.9898 345.214C58.8372 350.526 57.7592 356.213 57.8182 361.944C57.7592 367.676 58.8372 373.363 60.9898 378.675C63.1424 383.988 66.327 388.82 70.3592 392.894C74.3914 396.968 79.1913 400.202 84.4813 402.41C89.7713 404.617 95.4464 405.753 101.178 405.753C106.91 405.753 112.586 404.617 117.876 402.41C123.166 400.202 127.965 396.968 131.998 392.894C136.03 388.82 139.214 383.988 141.367 378.675C143.52 373.363 144.598 367.676 144.539 361.944Z" fill="#7F7F7F" stroke="#333333" stroke-width="1.875"/>
<path fill-rule="evenodd" clip-rule="evenodd" d="M272.233 361.944C272.292 356.213 271.214 350.526 269.061 345.214C266.909 339.901 263.724 335.069 259.692 330.995C255.66 326.921 250.86 323.687 245.57 321.479C240.28 319.272 234.605 318.136 228.873 318.136C223.141 318.136 217.466 319.272 212.176 321.479C206.886 323.687 202.086 326.921 198.054 330.995C194.021 335.069 190.837 339.901 188.684 345.214C186.532 350.526 185.454 356.213 185.513 361.944C185.454 367.676 186.532 373.363 188.684 378.675C190.837 383.988 194.021 388.82 198.054 392.894C202.086 396.968 206.886 400.202 212.176 402.41C217.466 404.617 223.141 405.753 228.873 405.753C234.605 405.753 240.28 404.617 245.57 402.41C250.86 400.202 255.66 396.968 259.692 392.894C263.724 388.82 266.909 383.988 269.061 378.675C271.214 373.363 272.292 367.676 272.233 361.944Z" fill="#7F7F7F" stroke="#333333" stroke-width="1.875"/>
<path fill-rule="evenodd" clip-rule="evenodd" d="M399.506 236.676C399.565 230.944 398.487 225.258 396.334 219.945C394.182 214.633 390.997 209.8 386.965 205.726C382.933 201.652 378.133 198.418 372.843 196.211C367.553 194.004 361.878 192.867 356.146 192.867C350.414 192.867 344.739 194.004 339.449 196.211C334.159 198.418 329.359 201.652 325.326 205.726C321.294 209.8 318.11 214.633 315.957 219.945C313.805 225.258 312.727 230.944 312.785 236.676C312.727 242.407 313.805 248.094 315.957 253.406C318.11 258.719 321.294 263.552 325.326 267.626C329.359 271.7 334.159 274.934 339.449 277.141C344.739 279.348 350.414 280.484 356.146 280.484C361.878 280.484 367.553 279.348 372.843 277.141C378.133 274.934 382.933 271.7 386.965 267.626C390.997 263.552 394.182 258.719 396.334 253.406C398.487 248.094 399.565 242.407 399.506 236.676Z" fill="#7F7F7F" stroke="#333333" stroke-width="1.875"/>
<path fill-rule="evenodd" clip-rule="evenodd" d="M144.539 237.005C144.598 231.273 143.52 225.586 141.367 220.274C139.214 214.962 136.03 210.129 131.998 206.055C127.965 201.981 123.166 198.747 117.876 196.54C112.586 194.332 106.91 193.196 101.178 193.196C95.4464 193.196 89.7713 194.332 84.4813 196.54C79.1913 198.747 74.3914 201.981 70.3592 206.055C66.327 210.129 63.1424 214.962 60.9898 220.274C58.8372 225.586 57.7592 231.273 57.8182 237.005C57.7592 242.736 58.8372 248.423 60.9898 253.735C63.1424 259.048 66.327 263.881 70.3592 267.955C74.3914 272.028 79.1913 275.263 84.4813 277.47C89.7713 279.677 95.4464 280.813 101.178 280.813C106.91 280.813 112.586 279.677 117.876 277.47C123.166 275.263 127.965 272.028 131.998 267.955C136.03 263.881 139.214 259.048 141.367 253.735C143.52 248.423 144.598 242.736 144.539 237.005Z" fill="#4C4C4C" stroke="#333333" stroke-width="1.875"/>
<path fill-rule="evenodd" clip-rule="evenodd" d="M272.233 237.005C272.292 231.273 271.214 225.586 269.061 220.274C266.909 214.962 263.724 210.129 259.692 206.055C255.66 201.981 250.86 198.747 245.57 196.54C240.28 194.332 234.605 193.196 228.873 193.196C223.141 193.196 217.466 194.332 212.176 196.54C206.886 198.747 202.086 201.981 198.054 206.055C194.021 210.129 190.837 214.962 188.684 220.274C186.532 225.586 185.454 231.273 185.513 237.005C185.454 242.736 186.532 248.423 188.684 253.735C190.837 259.048 194.021 263.881 198.054 267.955C202.086 272.028 206.886 275.263 212.176 277.47C217.466 279.677 223.141 280.813 228.873 280.813C234.605 280.813 240.28 279.677 245.57 277.47C250.86 275.263 255.66 272.028 259.692 267.955C263.724 263.881 266.909 259.048 269.061 253.735C271.214 248.423 272.292 242.736 272.233 237.005Z" fill="#4C4C4C" stroke="#333333" stroke-width="1.875"/>
<path fill-rule="evenodd" clip-rule="evenodd" d="M272.562 106.978C272.621 101.247 271.543 95.5602 269.39 90.2478C267.238 84.9354 264.053 80.1024 260.021 76.0285C255.989 71.9546 251.189 68.7205 245.899 66.5134C240.609 64.3062 234.934 63.1698 229.202 63.1698C223.47 63.1698 217.795 64.3062 212.505 66.5134C207.215 68.7205 202.415 71.9546 198.382 76.0285C194.35 80.1024 191.166 84.9354 189.013 90.2478C186.86 95.5602 185.782 101.247 185.841 106.978C185.782 112.71 186.86 118.397 189.013 123.709C191.166 129.021 194.35 133.854 198.382 137.928C202.415 142.002 207.215 145.236 212.505 147.443C217.795 149.651 223.47 150.787 229.202 150.787C234.934 150.787 240.609 149.651 245.899 147.443C251.189 145.236 255.989 142.002 260.021 137.928C264.053 133.854 267.238 129.021 269.39 123.709C271.543 118.397 272.621 112.71 272.562 106.978Z" fill="#4C4C4C" stroke="#333333" stroke-width="1.875"/>
<path fill-rule="evenodd" clip-rule="evenodd" d="M400.256 106.978C400.315 101.247 399.237 95.5602 397.084 90.2478C394.931 84.9354 391.747 80.1024 387.715 76.0285C383.682 71.9546 378.883 68.7205 373.593 66.5134C368.303 64.3062 362.627 63.1698 356.895 63.1698C351.163 63.1698 345.488 64.3062 340.198 66.5134C334.908 68.7205 330.108 71.9546 326.076 76.0285C322.044 80.1024 318.859 84.9354 316.707 90.2478C314.554 95.5602 313.476 101.247 313.535 106.978C313.476 112.71 314.554 118.397 316.707 123.709C318.859 129.021 322.044 133.854 326.076 137.928C330.108 142.002 334.908 145.236 340.198 147.443C345.488 149.651 351.163 150.787 356.895 150.787C362.627 150.787 368.303 149.651 373.593 147.443C378.883 145.236 383.682 142.002 387.715 137.928C391.747 133.854 394.931 129.021 397.084 123.709C399.237 118.397 400.315 112.71 400.256 106.978Z" fill="#4C4C4C" stroke="#333333" stroke-width="1.875"/>
</svg>
